<svg width="54" height="54" viewBox="0 0 54 54" fill="none" xmlns="http://www.w3.org/2000/svg">
<path d="M49.7812 29.6354C49.7812 29.6354 42.953 45 29.0391 45C15.1251 45 8.29688 29.6354 8.29688 29.6354C8.29688 29.6354 15.1251 14.2708 29.0391 14.2708C42.953 14.2708 49.7812 29.6354 49.7812 29.6354Z" fill="black"/>
<path fill-rule="evenodd" clip-rule="evenodd" d="M50.8093 30.0923L49.7812 29.6354L50.8093 29.1785C50.9386 29.4694 50.9386 29.8014 50.8093 30.0923ZM8.29688 29.6354C7.26883 30.0923 7.26902 30.0927 7.26924 30.0932L7.26982 30.0945L7.27144 30.0981L7.27658 30.1096L7.29446 30.1488C7.30975 30.1821 7.3318 30.2296 7.36061 30.2903C7.41824 30.4117 7.50297 30.5862 7.6149 30.806C7.83867 31.2455 8.17163 31.8677 8.61454 32.6116C9.49897 34.0972 10.8291 36.0808 12.6129 38.069C16.1684 42.0318 21.6342 46.125 29.0391 46.125C36.4439 46.125 41.9097 42.0318 45.4652 38.069C47.249 36.0808 48.5792 34.0972 49.4636 32.6116C49.9065 31.8677 50.2395 31.2455 50.4632 30.806C50.5752 30.5862 50.6599 30.4117 50.7175 30.2903C50.7463 30.2296 50.7684 30.1821 50.7837 30.1488L50.8015 30.1096L50.8067 30.0981L50.8089 30.0932C50.8091 30.0927 50.8093 30.0923 49.7812 29.6354C50.8093 29.1785 50.8091 29.1781 50.8089 29.1776L50.8067 29.1727L50.8015 29.1612L50.7837 29.122C50.7684 29.0887 50.7463 29.0412 50.7175 28.9805C50.6599 28.8591 50.5752 28.6847 50.4632 28.4648C50.2395 28.0253 49.9065 27.4031 49.4636 26.6592C48.5792 25.1736 47.249 23.19 45.4652 21.2018C41.9097 17.239 36.4439 13.1458 29.0391 13.1458C21.6342 13.1458 16.1684 17.239 12.6129 21.2018C10.8291 23.19 9.49897 25.1736 8.61454 26.6592C8.17163 27.4031 7.83867 28.0253 7.6149 28.4648C7.50297 28.6847 7.41824 28.8591 7.36061 28.9805C7.3318 29.0412 7.30975 29.0887 7.29446 29.122L7.27658 29.1612L7.27144 29.1727L7.26982 29.1763L7.26924 29.1776C7.26902 29.1781 7.26883 29.1785 8.29688 29.6354ZM8.29688 29.6354L7.26883 30.0923C7.13956 29.8014 7.13956 29.4694 7.26883 29.1785L8.29688 29.6354ZM8.29688 29.6354C8.29688 29.6354 15.1251 14.2708 29.0391 14.2708C42.953 14.2708 49.7812 29.6354 49.7812 29.6354C49.7812 29.6354 42.953 45 29.0391 45C15.1251 45 8.29688 29.6354 8.29688 29.6354Z" fill="black"/>
<path d="M47.3229 27.1771C47.3229 27.1771 40.4946 42.5417 26.5807 42.5417C12.6668 42.5417 5.8385 27.1771 5.8385 27.1771C5.8385 27.1771 12.6668 11.8125 26.5807 11.8125C40.4946 11.8125 47.3229 27.1771 47.3229 27.1771Z" fill="#44E2F8"/>
<path fill-rule="evenodd" clip-rule="evenodd" d="M48.3509 27.634L47.3229 27.1771L48.3509 26.7202C48.4802 27.0111 48.4802 27.3431 48.3509 27.634ZM5.8385 27.1771C4.81045 27.634 4.81065 27.6344 4.81087 27.6349L4.81144 27.6362L4.81307 27.6398L4.81821 27.6512L4.83608 27.6905C4.85137 27.7238 4.87342 27.7713 4.90224 27.832C4.95986 27.9534 5.0446 28.1278 5.15652 28.3477C5.38029 28.7872 5.71326 29.4094 6.15616 30.1533C7.0406 31.6389 8.37072 33.6225 10.1545 35.6107C13.71 39.5735 19.1758 43.6667 26.5807 43.6667C33.9856 43.6667 39.4514 39.5735 43.0069 35.6107C44.7907 33.6225 46.1208 31.6389 47.0052 30.1533C47.4481 29.4094 47.7811 28.7872 48.0049 28.3477C48.1168 28.1278 48.2015 27.9534 48.2591 27.832C48.288 27.7713 48.31 27.7238 48.3253 27.6905L48.3432 27.6512L48.3483 27.6398L48.3505 27.6349C48.3507 27.6344 48.3509 27.634 47.3229 27.1771C48.3509 26.7202 48.3507 26.7198 48.3505 26.7193L48.3483 26.7143L48.3432 26.7029L48.3253 26.6637C48.31 26.6304 48.288 26.5829 48.2591 26.5222C48.2015 26.4008 48.1168 26.2263 48.0049 26.0065C47.7811 25.5669 47.4481 24.9448 47.0052 24.2009C46.1208 22.7153 44.7907 20.7316 43.0069 18.7435C39.4514 14.7806 33.9856 10.6875 26.5807 10.6875C19.1758 10.6875 13.71 14.7806 10.1545 18.7435C8.37072 20.7316 7.0406 22.7153 6.15616 24.2009C5.71326 24.9448 5.38029 25.5669 5.15652 26.0065C5.0446 26.2263 4.95986 26.4008 4.90224 26.5222C4.87342 26.5829 4.85137 26.6304 4.83608 26.6637L4.81821 26.7029L4.81307 26.7143L4.81144 26.718L4.81087 26.7193C4.81065 26.7198 4.81045 26.7202 5.8385 27.1771ZM5.8385 27.1771L4.81045 27.634C4.68118 27.3431 4.68118 27.0111 4.81045 26.7202L5.8385 27.1771ZM5.8385 27.1771C5.8385 27.1771 12.6668 11.8125 26.5807 11.8125C40.4946 11.8125 47.3229 27.1771 47.3229 27.1771C47.3229 27.1771 40.4946 42.5417 26.5807 42.5417C12.6668 42.5417 5.8385 27.1771 5.8385 27.1771Z" fill="black"/>
<path d="M35.3416 26.5504C35.5696 31.9745 31.7421 36.5403 26.7926 36.7483C21.8431 36.9563 17.6459 32.7279 17.4179 27.3038C17.19 21.8797 21.0175 17.3139 25.967 17.1059C30.9164 16.8978 35.1136 21.1263 35.3416 26.5504Z" fill="white"/>
<path fill-rule="evenodd" clip-rule="evenodd" d="M36.4657 26.5031C36.7157 32.4489 32.5049 37.6342 26.84 37.8723C21.175 38.1104 16.544 33.2968 16.2941 27.351C16.0441 21.4052 20.2549 16.22 25.9198 15.9819C31.5847 15.7437 36.2158 20.5573 36.4657 26.5031ZM26.7927 36.7483C31.7422 36.5403 35.5697 31.9745 35.3417 26.5504C35.1137 21.1263 30.9166 16.8978 25.9671 17.1059C21.0176 17.3139 17.1901 21.8797 17.4181 27.3038C17.6461 32.7279 21.8432 36.9563 26.7927 36.7483Z" fill="black"/>
<path d="M31.8373 26.2399C31.9697 29.3904 29.5957 32.0487 26.5348 32.1773C23.474 32.306 20.8853 29.8563 20.7528 26.7059C20.6204 23.5554 22.9944 20.8972 26.0553 20.7685C29.1162 20.6398 31.7049 23.0895 31.8373 26.2399Z" fill="#FC75FF"/>
<path fill-rule="evenodd" clip-rule="evenodd" d="M32.9613 26.1927C33.1185 29.9332 30.2941 33.1453 26.5821 33.3013C22.8701 33.4574 19.786 30.4936 19.6288 26.7531C19.4716 23.0127 22.296 19.8005 26.008 19.6445C29.72 19.4885 32.8041 22.4523 32.9613 26.1927ZM26.5348 32.1773C29.5957 32.0487 31.9697 29.3904 31.8373 26.24C31.7048 23.0895 29.1162 20.6398 26.0553 20.7685C22.9944 20.8972 20.6204 23.5554 20.7528 26.7059C20.8853 29.8563 23.4739 32.306 26.5348 32.1773Z" fill="black"/>
<path d="M28.692 25.8983C28.7578 27.4644 27.5777 28.7859 26.056 28.8499C24.5344 28.9138 23.2475 27.696 23.1817 26.1299C23.1159 24.5637 24.296 23.2423 25.8176 23.1783C27.3393 23.1143 28.6262 24.3321 28.692 25.8983Z" fill="black"/>
</svg>
