<svg width="32" height="32" viewBox="0 0 32 32" fill="none" xmlns="http://www.w3.org/2000/svg">
<path d="M13.998 28.8698C14.0255 29.1752 14.2577 29.4225 14.5607 29.4691C14.8638 29.5157 15.1596 29.3495 15.2775 29.0665C16.5379 26.0402 21.1374 19.6419 29.3162 18.489C29.6289 18.445 29.8677 18.1876 29.8884 17.8725C29.9091 17.5575 29.7059 17.2711 29.4017 17.1866C25.77 16.1771 23.2612 13.6705 21.5925 10.8902C19.9201 8.10375 19.1232 5.09092 18.9042 3.19138C18.8695 2.89024 18.6359 2.65044 18.3358 2.60773C18.0357 2.56502 17.7446 2.73015 17.6272 3.00964C14.0778 11.4625 6.79006 13.5677 3.67763 13.5824C3.35178 13.5839 3.07478 13.8208 3.02268 14.1424C2.97057 14.4641 3.15863 14.7763 3.46734 14.8806C6.63387 15.9506 13.2255 20.2651 13.998 28.8698Z" fill="#16161D"/>
<path d="M27.8898 16.4955C19.4017 17.692 14.6457 24.3149 13.3287 27.4768C12.525 18.5249 5.67295 14.0394 2.34741 12.9157C5.67064 12.9001 13.2354 10.6819 16.9085 1.93441C17.3656 5.89775 20.2017 14.3586 27.8898 16.4955Z" fill="#FC75FF"/>
<path fill-rule="evenodd" clip-rule="evenodd" d="M13.2274 28.1357C12.9243 28.0891 12.6921 27.8418 12.6647 27.5364C11.8921 18.9318 5.3005 14.6173 2.13398 13.5473C1.82527 13.4429 1.63721 13.1308 1.68931 12.8091C1.74141 12.4874 2.01841 12.2506 2.34427 12.249C5.4567 12.2344 12.7445 10.1291 16.2939 1.67631C16.4112 1.39682 16.7024 1.23169 17.0025 1.2744C17.3026 1.31711 17.5361 1.55691 17.5708 1.85804C17.7899 3.75758 18.5868 6.77042 20.2591 9.55682C21.9278 12.3371 24.4366 14.8438 28.0683 15.8532C28.3725 15.9378 28.5757 16.2241 28.555 16.5392C28.5344 16.8543 28.2955 17.1116 27.9829 17.1557C19.8041 18.3085 15.2046 24.7069 13.9441 27.7332C13.8262 28.0162 13.5304 28.1823 13.2274 28.1357ZM26.5121 16.7431C26.9599 16.6449 27.4191 16.5619 27.8898 16.4956C27.4324 16.3684 26.9921 16.2189 26.5686 16.0493C20.5315 13.6316 17.8774 7.12977 17.0985 3.14173C17.0135 2.70649 16.9508 2.30119 16.9085 1.93441C16.7472 2.31866 16.5783 2.6903 16.4027 3.04971C13.0902 9.82672 7.3531 12.2549 3.8126 12.7927C3.26623 12.8757 2.77217 12.9137 2.3474 12.9157C2.75409 13.0531 3.21351 13.2408 3.70817 13.4808C7.06768 15.1108 12.0521 19.153 13.1757 26.2404C13.2394 26.6427 13.2908 27.0548 13.3287 27.4768C13.4692 27.1395 13.6488 26.7628 13.868 26.3574C15.589 23.1742 19.7463 18.2269 26.5121 16.7431Z" fill="#16161D"/>
<path d="M20.6667 15.6667C16.9334 16.7333 14.7778 19.8333 14 21.3333C13.5 19 11.6667 15 9.33337 14C10.3889 13.9445 13.6667 11.6667 15.8334 8.33334C16.9 12.6 19.4445 14.9445 20.6667 15.6667Z" fill="white"/>
<path fill-rule="evenodd" clip-rule="evenodd" d="M15.8883 8.00458C16.0192 8.02646 16.1246 8.12382 16.1567 8.2525C17.2006 12.4279 19.6865 14.7003 20.8363 15.3797C20.951 15.4475 21.0143 15.577 20.9973 15.7091C20.9803 15.8413 20.8863 15.9506 20.7583 15.9872C17.1531 17.0172 15.0555 20.022 14.2959 21.4868C14.2312 21.6117 14.095 21.6824 13.9556 21.6637C13.8162 21.645 13.7036 21.5407 13.6741 21.4032C13.4317 20.2719 12.8613 18.7208 12.065 17.3325C11.2619 15.9321 10.2658 14.7623 9.20205 14.3064C9.05961 14.2453 8.97803 14.0942 9.00518 13.9416C9.03234 13.789 9.16108 13.6753 9.31584 13.6671C9.49796 13.6576 9.84337 13.539 10.3271 13.2689C10.7965 13.0067 11.357 12.6242 11.9565 12.1371C13.1558 11.1627 14.4922 9.7851 15.5539 8.15168C15.6262 8.04047 15.7575 7.9827 15.8883 8.00458ZM10.1787 14.0915C11.144 14.7549 11.9801 15.8444 12.6433 17.0008C13.2974 18.1412 13.8066 19.3878 14.1189 20.4535C15.0778 18.9089 16.9708 16.6306 19.917 15.5595C18.6237 14.5772 16.7158 12.4811 15.7031 9.11582C14.6768 10.5521 13.4724 11.7645 12.3769 12.6546C11.7542 13.1605 11.1619 13.5662 10.6521 13.8509C10.4896 13.9417 10.3308 14.0228 10.1787 14.0915Z" fill="#16161D"/>
</svg>
